<svg xmlns="http://www.w3.org/2000/svg" width="1440" height="250" viewBox="0 0 1440 250">
  <defs>
    <linearGradient id="boostGrad" x1="0%" y1="0%" x2="100%" y2="100%">
      <stop offset="0%" style="stop-color:#3b3054;stop-opacity:1" />
      <stop offset="100%" style="stop-color:#232127;stop-opacity:1" />
    </linearGradient>
  </defs>
  <rect width="1440" height="250" fill="url(#boostGrad)"/>
  
  <circle cx="100" cy="80" r="100" fill="#2acfcf" opacity="0.1"/>
  <circle cx="300" cy="150" r="80" fill="#9be3e3" opacity="0.15"/>
  <circle cx="600" cy="50" r="120" fill="#2acfcf" opacity="0.08"/>
  <circle cx="900" cy="120" r="90" fill="#9be3e3" opacity="0.1"/>
  <circle cx="1200" cy="80" r="110" fill="#2acfcf" opacity="0.12"/>
  <circle cx="1350" cy="180" r="70" fill="#9be3e3" opacity="0.1"/>
  
  <path d="M0,100 Q200,50 400,100 T800,100 T1200,100 T1440,100" stroke="#2acfcf" stroke-width="2" fill="none" opacity="0.2"/>
  <path d="M0,150 Q300,100 600,150 T1200,150 T1440,150" stroke="#9be3e3" stroke-width="2.5" fill="none" opacity="0.15"/>
  <path d="M0,200 Q100,150 200,200 T400,200 T600,200 T800,200 T1000,200 T1200,200 T1440,200" stroke="#2acfcf" stroke-width="1.5" fill="none" opacity="0.1"/>
</svg>
