<svg xmlns="http://www.w3.org/2000/svg" width="40" height="40" viewBox="0 0 40 40">
  <rect x="10" y="5" width="20" height="30" rx="2" fill="white" stroke="#2acfcf" stroke-width="2"/>
  
  <rect x="12" y="8" width="16" height="8" rx="1" fill="#2acfcf"/>
  <rect x="12" y="18" width="16" height="8" rx="1" fill="#9be3e3"/>
  <rect x="12" y="28" width="16" height="4" rx="1" fill="#9e9aa7"/>
  
  <circle cx="18" cy="12" r="2" fill="white"/>
  <rect x="22" y="10" width="4" height="4" rx="0.5" fill="white"/>
  
  <rect x="14" y="20" width="12" height="4" rx="0.5" fill="white"/>
  
  <path d="M5,15 L8,15 M5,25 L8,25" stroke="#2acfcf" stroke-width="2" stroke-linecap="round"/>
  <path d="M32,15 L35,15 M32,25 L35,25" stroke="#2acfcf" stroke-width="2" stroke-linecap="round"/>
  <circle cx="5" cy="15" r="1.5" fill="#2acfcf"/>
  <circle cx="35" cy="15" r="1.5" fill="#2acfcf"/>
  <circle cx="5" cy="25" r="1.5" fill="#9be3e3"/>
  <circle cx="35" cy="25" r="1.5" fill="#9be3e3"/>
</svg>
