<svg xmlns="http://www.w3.org/2000/svg" width="500" height="400" viewBox="0 0 500 400">
  <rect x="80" y="100" width="200" height="150" rx="10" fill="#bfbfbf"/>
  <rect x="90" y="110" width="180" height="120" fill="#3b3054"/>
  <rect x="150" y="250" width="60" height="20" fill="#bfbfbf"/>
  <rect x="130" y="270" width="100" height="10" rx="5" fill="#bfbfbf"/>
  
  <circle cx="350" cy="150" r="80" fill="#2acfcf" opacity="0.3"/>
  <circle cx="380" cy="130" r="60" fill="#9be3e3" opacity="0.5"/>
  
  <g transform="translate(320, 100)">
    <path d="M30,0 Q35,-10 40,0 Q45,10 40,15 Q35,20 30,15 Q25,10 30,0Z" fill="#2acfcf"/>
    <path d="M50,20 Q55,10 60,20 Q65,30 60,35 Q55,40 50,35 Q45,30 50,20Z" fill="#9be3e3"/>
    <path d="M10,30 Q15,20 20,30 Q25,40 20,45 Q15,50 10,45 Q5,40 10,30Z" fill="#3b3054"/>
  </g>
  
  <g transform="translate(330, 120)">
    <circle cx="50" cy="30" r="20" fill="#f0f1f6"/>
    <circle cx="55" cy="25" r="5" fill="#2acfcf"/>
    <rect x="40" y="50" width="20" height="30" rx="10" fill="#f0f1f6"/>
  </g>
  
  <g transform="translate(100, 120)">
    <rect x="0" y="0" width="40" height="20" rx="5" fill="#2acfcf" opacity="0.8"/>
    <rect x="0" y="25" width="60" height="10" rx="5" fill="#9e9aa7" opacity="0.5"/>
    <rect x="0" y="40" width="50" height="10" rx="5" fill="#9e9aa7" opacity="0.5"/>
    <rect x="0" y="55" width="70" height="10" rx="5" fill="#9e9aa7" opacity="0.5"/>
    <rect x="0" y="70" width="55" height="10" rx="5" fill="#9e9aa7" opacity="0.5"/>
  </g>
  
  <g transform="translate(170, 130)">
    <rect x="0" y="0" width="80" height="60" rx="5" fill="white" stroke="#bfbfbf" stroke-width="2"/>
    <rect x="5" y="5" width="70" height="5" rx="2" fill="#2acfcf"/>
    <rect x="5" y="15" width="30" height="5" rx="2" fill="#9e9aa7"/>
    <rect x="5" y="25" width="60" height="5" rx="2" fill="#f0f1f6"/>
    <rect x="5" y="35" width="50" height="5" rx="2" fill="#f0f1f6"/>
    <rect x="5" y="45" width="70" height="5" rx="2" fill="#f0f1f6"/>
  </g>
</svg>
