<svg xmlns="http://www.w3.org/2000/svg" width="48" height="48" fill="none" viewBox="0 0 48 48"><path fill="#6366f1" d="M24 4C12.954 4 4 12.954 4 24s8.954 20 20 20 20-8.954 20-20S35.046 4 24 4Zm0 36c-8.822 0-16-7.178-16-16S15.178 8 24 8s16 7.178 16 16-7.178 16-16 16Z" style="fill:#6366f1;fill-opacity:1"/><path fill="#10b981" d="M24 12c-6.627 0-12 5.373-12 12s5.373 12 12 12 12-5.373 12-12-5.373-12-12-12Zm0 20c-4.418 0-8-3.582-8-8s3.582-8 8-8 8 3.582 8 8-3.582 8-8 8Z" style="fill:#10b981;fill-opacity:1"/><path fill="#f59e0b" d="M24 20c-2.206 0-4 1.794-4 4s1.794 4 4 4 4-1.794 4-4-1.794-4-4-4Z" style="fill:#f59e0b;fill-opacity:1"/></svg>