<svg xmlns="http://www.w3.org/2000/svg" xmlns:xlink="http://www.w3.org/1999/xlink" aria-hidden="true" role="img" class="iconify iconify--logos" width="31.88" height="32" preserveAspectRatio="xMidYMid meet" viewBox="0 0 256 257"><defs><linearGradient id="IconifyId1813088fe1fbc01fb466" x1="-.828%" x2="57.636%" y1="7.652%" y2="78.411%"><stop offset="0%" stop-color="#41D1FF"></stop><stop offset="100%" stop-color="#BD34FE"></stop></linearGradient><linearGradient id="IconifyId1813088fe1fbc01fb467" x1="43.376%" x2="50.316%" y1="2.242%" y2="89.03%"><stop offset="0%" stop-color="#FFEA83"></stop><stop offset="8.333%" stop-color="#FFDD35"></stop><stop offset="100%" stop-color="#FFA800"></stop></linearGradient></defs><path fill="url(#IconifyId1813088fe1fbc01fb466)" d="M255.153 37.938L134.897 252.976c-2.483 4.44-8.862 4.466-11.382.048L.875 37.958c-2.746-4.817 1.097-11.159 6.981-11.159h59.295c4.256 0 8.033 2.67 9.508 6.607l46.468 124.33l46.468-124.33c1.475-3.936 5.252-6.607 9.508-6.607h59.294c5.88 0 9.728 6.334 6.984 11.152z"></path><path fill="url(#IconifyId1813088fe1fbc01fb467)" d="M128.025 205.55l18.32-49.673c2.057-5.548 5.346-8.441 7.352-8.441s5.295 2.893 7.352 8.441l18.32 49.673c1.987 5.468 9.529 4.639 9.529-1.471V53.648c0-4.527-3.666-8.193-8.193-8.193H81.766c-4.527 0-8.193 3.666-8.193 8.193v150.43c0 6.125 7.551 6.928 9.529 1.471l18.32-49.673c2.057-5.548 5.346-8.441 7.352-8.441s5.295 2.893 7.352 8.441l18.32 49.673c1.987 5.468 9.529 4.639 9.529-1.471V53.648c0-4.527-3.666-8.193-8.193-8.193h-57.527c-4.527 0-8.193 3.666-8.193 8.193v150.43c0 6.125 7.551 6.928 9.529 1.471l18.32-49.673c2.057-5.548 5.346-8.441 7.352-8.441s5.295 2.893 7.352 8.441l18.32 49.673c1.987 5.468 9.529 4.639 9.529-1.471z"></path></svg>
